<svg xmlns="http://www.w3.org/2000/svg" viewBox="0 0 24 24" id="IcMinimumDeliveryFee"><path d="M5.736 15.129a2.286 2.286 0 1 0 0 4.571 2.286 2.286 0 0 0 0-4.571M1.95 17.415a3.786 3.786 0 1 1 7.571 0 3.786 3.786 0 0 1-7.571 0m16.276-2.286a2.286 2.286 0 1 0 0 4.571 2.286 2.286 0 0 0 0-4.571m-3.786 2.286a3.786 3.786 0 1 1 7.571 0 3.786 3.786 0 0 1-7.571 0" clip-rule="evenodd"/><path d="M15.31 2.9a2.051 2.051 0 1 0 0 4.102 2.051 2.051 0 0 0 0-4.102M4 5.4a1.75 1.75 0 0 0-1.75 1.75v3.1c0 .966.784 1.75 1.75 1.75h3.1a1.75 1.75 0 0 0 1.75-1.75v-3.1A1.75 1.75 0 0 0 7.1 5.4z"/><path d="M12.063 7.982a1.4 1.4 0 0 1 2.426 1.4l-2.494 4.32a1.4 1.4 0 1 1-2.426-1.4z" clip-rule="evenodd"/><path d="M19.254 10.446a.75.75 0 0 1 .18 1.49h-.007l-.014.002-.052.006a12.293 12.293 0 0 1-.79.06c-.462.022-1.1.027-1.607-.08-1.178-.247-2.157-1.143-2.789-1.857a10.778 10.778 0 0 1-1.048-1.405l-.017-.027-.004-.008-.002-.002v-.002a.75.75 0 0 1 1.29-.763l.002.003.01.016.045.071a9.29 9.29 0 0 0 .847 1.122c.588.664 1.294 1.242 1.975 1.385.305.064.78.07 1.227.049a12.228 12.228 0 0 0 .7-.054l.042-.004.01-.002z"/><path d="M9.749 12.991a.75.75 0 0 1 1.06-.042l2.651 2.45a.75.75 0 0 1 .17.872l-2.013 4.24a.75.75 0 0 1-1.355-.643l1.775-3.742-2.246-2.075a.75.75 0 0 1-.042-1.06" clip-rule="evenodd"/></svg>