<svg xmlns="http://www.w3.org/2000/svg" viewBox="0 0 16 16" id="IcMinimumCartSm"><path fill-rule="evenodd" d="M11.397 4.55a.432.432 0 0 1-.403-.303 3.41 3.41 0 0 0-.736-1.25A3.037 3.037 0 0 0 8.031 2c-.835 0-1.637.358-2.227.996a3.407 3.407 0 0 0-.736 1.25.432.432 0 0 1-.402.304H3.15a1.15 1.15 0 0 0-1.135 1.336l1.171 7.15A1.15 1.15 0 0 0 4.321 14h7.512a1.15 1.15 0 0 0 1.139-.993l.988-7.15a1.15 1.15 0 0 0-1.14-1.307zm-2.22 0c.15 0 .247-.158.166-.283C9.08 3.858 8.687 3.5 8.03 3.5c-.658 0-1.04.36-1.291.77-.077.126.02.28.167.28zM4.959 12.5a.4.4 0 0 1-.395-.335L3.6 6.282a.2.2 0 0 1 .198-.232h8.391a.2.2 0 0 1 .198.227l-.812 5.878a.4.4 0 0 1-.396.345z" clip-rule="evenodd"/><path d="M7.083 10.272A.752.752 0 1 1 6.02 9.209L7.51 7.72a.75.75 0 0 1 .54-.22.75.75 0 0 1 .538.22l1.489 1.489a.752.752 0 0 1-1.064 1.063l-.215-.216-.752-.736-.752.742z"/></svg>