<svg xmlns="http://www.w3.org/2000/svg" viewBox="0 0 16 16" id="IcTimelineOnthewayYemekSm"><path fill-rule="evenodd" d="M8 2a6 6 0 1 1 0 12A6 6 0 0 1 8 2m2.208 3.29a.366.366 0 0 1-.005.42 59.264 59.264 0 0 0-.985 1.495 11.595 11.595 0 0 0-1.521 3.685c-.058.252-.246.35-.466.392a.843.843 0 0 1-.687-.155.528.528 0 0 1-.224-.404c-.022-.421.074-.822.232-1.205.153-.366.323-.725.494-1.083l.075-.157c.04-.086.035-.133-.024-.218a4.24 4.24 0 0 1-.395-.677 8.977 8.977 0 0 1-.59-1.826 3.921 3.921 0 0 1-.048-.32c-.033-.295.061-.404.408-.404.298.002.567.126.778.333a.726.726 0 0 1 .174.327c.046.184.108.446.169.703.096.407.189.803.213.866l.31-.53.285-.485.201-.34c.146-.246.292-.492.43-.743.17-.305.384-.32.669-.174.216.11.383.288.507.5" clip-rule="evenodd"/></svg>